<svg width="40" height="40" viewBox="0 0 64 64" xmlns="http://www.w3.org/2000/svg">
<circle cx="32" cy="32" r="32" fill="#002D74"/>
<path d="M48.484 30.88c.65-1.006.884-2.195.884-3.335 0-3.718-2.97-6.688-6.688-6.688-1.853 0-3.534.748-4.751 1.964-3.057-1.357-6.456-2.117-10.04-2.117-3.56 0-6.94.748-9.99 2.094-1.217-1.205-2.887-1.941-4.728-1.941-3.718 0-6.688 2.97-6.688 6.688 0 1.133.223 2.205.689 3.176C5.825 33.862 5 37.826 5 41.978c0 .318.012.635.023.953C5.058 44.2 6.13 45.224 7.4 45.224c.436 0 .842-.13 1.205-.341 4.692 3.87 10.677 6.205 17.213 6.205 6.582 0 12.567-2.346 17.26-6.252.317.177.659.271 1.034.271 1.228 0 2.276-.94 2.347-2.14.023-.412.035-.812.035-1.224 0-4.033-.77-7.88-2.011-11.063zM15.878 39.32c-1.922 0-3.475-1.553-3.475-3.475s1.553-3.475 3.475-3.475c1.923 0 3.476 1.553 3.476 3.475s-1.553 3.475-3.476 3.475zm16.12 6.044c-2.76 0-4.998-2.237-4.998-4.997 0-2.76 2.238-4.998 4.998-4.998s4.997 2.238 4.997 4.998c0 2.76-2.238 4.997-4.997 4.997zm0-15.977c-1.923 0-3.476-1.553-3.476-3.475 0-1.923 1.553-3.476 3.476-3.476s3.475 1.553 3.475 3.476c0 1.922-1.552 3.475-3.475 3.475zm15.88 5.98c-1.923 0-3.475-1.553-3.475-3.475s1.552-3.475 3.475-3.475 3.475 1.553 3.475 3.475-1.552 3.475-3.475 3.475z" fill="#fff"/>
</svg>

