<svg width="40" height="40" viewBox="0 0 141 141" xmlns="http://www.w3.org/2000/svg">
<circle cx="70.5" cy="70.5" r="70.5" fill="#173DC9"/>
<path d="M111.794 46.473L78.856 79.411l-6.358-6.359 32.938-32.937c2.12-2.12 5.556-2.12 7.675 0 2.121 2.12 2.121 5.556 0 7.675.842.842.683.683 0 0z" fill="#fff"/>
<path d="M46.473 111.794l32.938-32.938 6.359 6.358-32.938 32.938c-2.12 2.12-5.556 2.12-7.675 0-2.12-2.12-2.12-5.556 0-7.675-.842-.842-.683-.683 0 0z" fill="#fff"/>
<path d="M46.473 46.473c-2.12 2.12-2.12 5.556 0 7.675l43.063 43.063c2.12 2.121 5.556 2.121 7.675 0 2.12-2.12 2.12-5.555 0-7.675L54.15 46.473c-2.122-2.12-5.557-2.12-7.677 0z" fill="#fff"/>
</svg>

