<svg width="40" height="40" viewBox="0.5 0 316 316" xmlns="http://www.w3.org/2000/svg" preserveAspectRatio="xMidYMid">
<path d="M274.1 35.5l-99.5 73.9L193 65.8z" fill="#E2761B" stroke="#E2761B" stroke-linecap="round" stroke-linejoin="round"/>
<path d="M44.4 35.5l98.7 74.6-17.5-44.3zm193.9 171.3l-26.5 40.6 56.7 15.6 16.3-55.3z" fill="#E4761B" stroke="#E4761B" stroke-linecap="round" stroke-linejoin="round"/>
<path d="M33.9 207.7L50.1 263l56.7-15.6-26.5-40.6z" fill="#E4761B" stroke="#E4761B" stroke-linecap="round" stroke-linejoin="round"/>
<path d="M103.6 138.2l-15.8 23.9 56.3 2.5-2-60.5z" fill="#E4761B" stroke="#E4761B" stroke-linecap="round" stroke-linejoin="round"/>
<path d="M214.9 138.2l-39-34.8-1.3 61.2 56.2-2.5z" fill="#E4761B" stroke="#E4761B" stroke-linecap="round" stroke-linejoin="round"/>
<path d="M106.8 247.4l33.8-16.5-29.2-22.8z" fill="#E4761B" stroke="#E4761B" stroke-linecap="round" stroke-linejoin="round"/>
<path d="M177.9 230.9l33.9 16.5-4.7-39.3z" fill="#E4761B" stroke="#E4761B" stroke-linecap="round" stroke-linejoin="round"/>
<path d="M211.8 247.4l-33.9-16.5 2.7 22.1-.3 9.3z" fill="#D7C1B3" stroke="#D7C1B3" stroke-linecap="round" stroke-linejoin="round"/>
<path d="M106.8 247.4l31.5 14.9-.2-9.3 2.5-22.1z" fill="#D7C1B3" stroke="#D7C1B3" stroke-linecap="round" stroke-linejoin="round"/>
</svg>

