<svg width="40" height="40" viewBox="0 0 512 512" xmlns="http://www.w3.org/2000/svg">
<path d="M256 512c141.385 0 256-114.615 256-256S397.385 0 256 0 0 114.615 0 256s114.615 256 256 256z" fill="#3B99FC"/>
<path d="M169.557 203.427c47.763-46.486 125.124-46.486 172.887 0l5.743 5.584c2.394 2.33 2.394 6.1 0 8.425l-19.647 19.113c-1.197 1.164-3.136 1.164-4.333 0l-7.905-7.69c-33.334-32.425-87.361-32.425-120.695 0l-8.458 8.228c-1.197 1.165-3.136 1.165-4.333 0l-19.647-19.112c-2.394-2.326-2.394-6.1 0-8.426l6.388-6.122zm213.415 39.797l17.505 17.03c2.394 2.329 2.394 6.1 0 8.425l-78.947 76.8c-2.39 2.326-6.265 2.326-8.655 0l-56.01-54.514c-.599-.582-1.568-.582-2.166 0l-56.012 54.514c-2.39 2.326-6.265 2.326-8.655 0l-78.947-76.8c-2.394-2.326-2.394-6.096 0-8.426l17.505-17.03c2.39-2.325 6.265-2.325 8.655 0l56.01 54.514c.599.583 1.568.583 2.166 0l56.012-54.514c2.39-2.325 6.265-2.325 8.655 0l56.01 54.514c.599.583 1.568.583 2.166 0l56.01-54.514c2.39-2.325 6.266-2.325 8.655 0l.043.001z" fill="#fff"/>
</svg>

